<svg width="16" height="16" viewBox="0 0 16 16" fill="none" xmlns="http://www.w3.org/2000/svg">
<path d="M7.99998 11.3333V10.6666M9.38887 6.06056C9.11109 5.6242 8.55554 5.33329 7.94443 5.33329C7.05554 5.33329 6.33331 5.96359 6.33331 6.78784C6.33331 6.78784 6.33331 7.99996 7.99998 7.99996C9.66665 7.99996 9.66665 9.21208 9.66665 9.21208C9.66665 10.0363 8.94442 10.6666 8.05553 10.6666C7.44442 10.6666 6.88887 10.3757 6.61109 9.93935M7.99998 5.33329V4.66663" stroke="#686A6C" stroke-linecap="round" stroke-linejoin="round"/>
<path d="M8 2C4.68629 2 2 4.68629 2 8C2 11.3137 4.68629 14 8 14C11.3137 14 14 11.3137 14 8C14 4.68629 11.3137 2 8 2Z" stroke="#686A6C" stroke-linecap="round" stroke-linejoin="round"/>
</svg>
